<?xml version="1.0" encoding="UTF-8" standalone="no"?><!DOCTYPE svg PUBLIC "-//W3C//DTD SVG 1.1//EN" "http://www.w3.org/Graphics/SVG/1.1/DTD/svg11.dtd"><svg width="100%" height="100%" viewBox="0 0 231 231" version="1.1" xmlns="http://www.w3.org/2000/svg" xmlns:xlink="http://www.w3.org/1999/xlink" xml:space="preserve" xmlns:serif="http://www.serif.com/" style="fill-rule:evenodd;clip-rule:evenodd;stroke-linejoin:round;stroke-miterlimit:2;"><rect id="Page-1" serif:id="Page 1" x="0" y="0" width="230.365" height="230.18" style="fill:none;"/><g id="Layer-1" serif:id="Layer 1"><path d="M115.163,6.861l-4.696,10.296c-18.4,2.317 -35.179,17.983 -35.175,37.012c0,9.05 4.729,16.425 11.121,23.817c6.379,7.396 28.767,27.633 28.767,27.633c0,0 22.396,-20.233 28.783,-27.633c6.375,-7.396 11.117,-14.762 11.117,-23.817c0,-19.029 -16.775,-34.7 -35.175,-37.017l-4.742,-10.292Zm-10.171,130.121c0,0 -30.008,3.212 -39.521,5.446c-9.517,2.229 -17.679,5.404 -22.996,12.729c-11.192,15.396 -6.829,37.933 6.696,50.625l-2.246,11.083l9.883,-5.537c16.25,8.942 39.033,6.125 50.217,-9.267c5.325,-7.329 5.821,-16.075 4.996,-25.808c-0.812,-9.737 -7.029,-39.271 -7.029,-39.271m-42.9,-73.221c-18.096,-5.879 -38.187,5.233 -46.075,22.012l-11.25,1.329l8.333,7.654c-3.488,18.212 6.237,39.008 24.337,44.892c8.6,2.792 17.079,0.567 26.083,-3.217c9.008,-3.787 35.175,-18.829 35.175,-18.829c0,0 -12.329,-27.55 -17.396,-35.904c-5.054,-8.354 -10.596,-15.142 -19.208,-17.938m63.283,73.221c0,0 -6.225,29.529 -7.037,39.267c-0.821,9.729 -0.321,18.483 4.996,25.808c11.188,15.392 33.971,18.208 50.221,9.263l9.846,5.562l-2.213,-11.104c13.525,-12.692 17.888,-35.233 6.704,-50.625c-5.321,-7.325 -13.492,-10.5 -23,-12.738c-9.512,-2.225 -39.517,-5.433 -39.517,-5.433m42.896,-73.221c-8.608,2.796 -14.15,9.579 -19.213,17.938c-5.062,8.358 -17.392,35.904 -17.392,35.904c0,0 26.162,15.042 35.167,18.829c9.008,3.783 17.483,6.012 26.088,3.217c18.1,-5.883 27.825,-26.679 24.342,-44.896l8.333,-7.65l-11.25,-1.325c-7.892,-16.783 -27.975,-27.9 -46.075,-22.017" style="fill:#008265;fill-rule:nonzero;"/></g></svg>